<svg width="124" height="50" viewBox="0 0 124 50" fill="none" xmlns="http://www.w3.org/2000/svg">
<path d="M1.99999 6.54307C0.895419 6.54307 -1.22304e-05 7.43851 -1.22304e-05 8.54307V19.7557C-1.22304e-05 20.8603 0.895418 21.7557 1.99999 21.7557H4.96149C6.06606 21.7557 6.96149 22.6512 6.96149 23.7557V24.7721C6.96149 25.8767 6.06606 26.7721 4.96149 26.7721H1.99999C0.895419 26.7721 -1.22304e-05 27.6675 -1.22304e-05 28.7721V47.819C-1.22304e-05 49.0235 1.02188 50 2.28244 50H5.82027C7.08083 50 8.10272 49.0235 8.10272 47.819V29.8626C8.10272 28.758 8.99815 27.8626 10.1027 27.8626H25.6491C26.9096 27.8626 27.9315 26.8861 27.9315 25.6816V22.8462C27.9315 21.6417 26.9096 20.6652 25.6491 20.6652H10.1027C8.99815 20.6652 8.10272 19.7698 8.10272 18.6652V8.54308C8.10272 7.43851 8.99815 6.54307 10.1027 6.54307H27.7175C28.9781 6.54307 30 5.5666 30 4.36205V2.18103C30 0.976478 28.9781 0 27.7175 0H8.96149C7.85692 0 6.96149 0.895431 6.96149 2V4.54308C6.96149 5.64764 6.06606 6.54307 4.96149 6.54307H1.99999Z" fill="#6767C2"/>
<path d="M47.155 21.9506V21.9506C47.155 22.7272 46.4875 23.3103 45.7109 23.3103H38.7596C37.5948 23.3103 36.5718 24.4179 37.3255 25.306C37.3787 25.3687 37.4347 25.4286 37.4937 25.4858C38.0349 25.9753 38.6934 26.22 39.4692 26.22C40.1243 26.22 40.6661 26.0625 41.0947 25.7474C41.7236 25.2851 42.3778 24.7515 43.1584 24.7515H44.2334C45.5371 24.7515 46.4865 26.0101 45.7194 27.0643C45.6256 27.1932 45.5268 27.3197 45.423 27.4438C44.7735 28.2414 43.9526 28.8669 42.9603 29.3201C41.968 29.7734 40.8584 30 39.6316 30C38.1522 30 36.8352 29.6827 35.6805 29.0482C34.5258 28.4137 33.6237 27.5072 32.9742 26.3288C32.3248 25.1504 32 23.7726 32 22.1953C32 20.618 32.3157 19.2402 32.9472 18.0618C33.5967 16.8834 34.4988 15.9769 35.6534 15.3424C36.8081 14.7079 38.1342 14.3906 39.6316 14.3906C41.093 14.3906 42.392 14.6988 43.5286 15.3152C44.6652 15.9316 45.5493 16.8109 46.1807 17.953C46.8302 19.0952 47.155 20.4277 47.155 21.9506ZM40.419 20.7268C41.5236 20.7268 42.5007 19.6874 41.7091 18.917C41.6763 18.8851 41.6423 18.8538 41.6072 18.8232C41.0659 18.3519 40.3894 18.1162 39.5775 18.1162C38.8017 18.1162 38.1432 18.3428 37.6019 18.796V18.796C36.7229 19.5575 37.6747 20.7268 38.8376 20.7268H40.419Z" fill="#6767C2"/>
<path d="M54.224 15.1859C54.224 15.7612 55.0698 16.0485 55.5169 15.6865C55.7487 15.4989 55.9943 15.3298 56.2537 15.1792C56.4961 15.0331 56.7465 14.9088 57.005 14.8062C58.0318 14.399 58.9599 15.3404 58.9599 16.445V18.0952C58.9599 18.7977 58.3904 19.3671 57.688 19.3671V19.3671C56.5333 19.3671 55.6673 19.6209 55.09 20.1286C54.5126 20.618 54.224 21.4883 54.224 22.7392V27.7824C54.224 28.887 53.3285 29.7824 52.224 29.7824H51.5963C50.4917 29.7824 49.5963 28.887 49.5963 27.7824V16.6082C49.5963 15.5036 50.4917 14.6082 51.5963 14.6082H53.6463C53.9653 14.6082 54.224 14.8668 54.224 15.1859V15.1859Z" fill="#6767C2"/>
<path d="M65.7995 15.1859C65.7995 15.7612 66.6453 16.0485 67.0925 15.6865C67.3242 15.4989 67.5698 15.3298 67.8292 15.1792C68.0716 15.0331 68.322 14.9088 68.5805 14.8062C69.6073 14.399 70.5354 15.3404 70.5354 16.445V18.0952C70.5354 18.7977 69.966 19.3671 69.2635 19.3671V19.3671C68.1088 19.3671 67.2428 19.6209 66.6655 20.1286C66.0882 20.618 66 21.2491 66 22.5V37.5C66 38.6046 65.1046 39.5 64 39.5H63.1718C62.0673 39.5 61.1718 38.6046 61.1718 37.5V16.6082C61.1718 15.5036 62.0673 14.6082 63.1718 14.6082H65.2218C65.5409 14.6082 65.7995 14.8668 65.7995 15.1859V15.1859Z" fill="#6767C2"/>
<path d="M86.9822 21.9506V21.9506C86.9822 22.7272 86.3147 23.3103 85.5381 23.3103H78.5868C77.4221 23.3103 76.399 24.4179 77.1527 25.306C77.2059 25.3687 77.262 25.4286 77.3209 25.4858C77.8621 25.9753 78.5207 26.22 79.2965 26.22C79.9515 26.22 80.4933 26.0625 80.9219 25.7474C81.5509 25.2851 82.205 24.7515 82.9856 24.7515H84.0606C85.3643 24.7515 86.3137 26.0101 85.5466 27.0643C85.4528 27.1932 85.354 27.3197 85.2502 27.4438C84.6007 28.2414 83.7798 28.8669 82.7875 29.3201C81.7952 29.7734 80.6857 30 79.4588 30C77.9794 30 76.6624 29.6827 75.5077 29.0482C74.3531 28.4137 73.451 27.5072 72.8015 26.3288C72.152 25.1504 71.8272 23.7726 71.8272 22.1953C71.8272 20.618 72.143 19.2402 72.7744 18.0618C73.4239 16.8834 74.326 15.9769 75.4807 15.3424C76.6353 14.7079 77.9614 14.3906 79.4588 14.3906C80.9202 14.3906 82.2192 14.6988 83.3558 15.3152C84.4924 15.9316 85.3765 16.8109 86.0079 17.953C86.6574 19.0952 86.9822 20.4277 86.9822 21.9506ZM80.2463 20.7268C81.3508 20.7268 82.3279 19.6874 81.5363 18.917C81.5035 18.8851 81.4695 18.8538 81.4344 18.8232C80.8931 18.3519 80.2166 18.1162 79.4047 18.1162C78.6289 18.1162 77.9704 18.3428 77.4291 18.796V18.796C76.5501 19.5575 77.5019 20.7268 78.6649 20.7268H80.2463Z" fill="#6767C2"/>
<path d="M91.7509 13.0309C90.939 13.0309 90.2715 12.7952 89.7483 12.3239C89.2431 11.8344 88.9905 11.2361 88.9905 10.5291C88.9905 9.80388 89.2431 9.2056 89.7483 8.73424C90.2715 8.24475 90.939 8 91.7509 8C92.5447 8 93.1942 8.24475 93.6994 8.73424C94.2226 9.2056 94.4842 9.80388 94.4842 10.5291C94.4842 11.2361 94.2226 11.8344 93.6994 12.3239C93.1942 12.7952 92.5447 13.0309 91.7509 13.0309ZM92.0512 14.6082C93.1558 14.6082 94.0512 15.5036 94.0512 16.6082V27.7824C94.0512 28.887 93.1558 29.7824 92.0512 29.7824H91.4235C90.3189 29.7824 89.4235 28.887 89.4235 27.7824V16.6082C89.4235 15.5036 90.3189 14.6082 91.4235 14.6082H92.0512Z" fill="#6767C2"/>
<path d="M102.032 15.1859C102.032 15.7612 102.878 16.0485 103.325 15.6865C103.557 15.4989 103.803 15.3298 104.062 15.1792C104.305 15.0331 104.555 14.9088 104.813 14.8062C105.84 14.399 106.768 15.3404 106.768 16.445V18.0952C106.768 18.7977 106.199 19.3671 105.496 19.3671V19.3671C104.342 19.3671 103.476 19.6209 102.898 20.1286C102.321 20.618 102.032 21.4883 102.032 22.7392V27.7824C102.032 28.887 101.137 29.7824 100.032 29.7824H99.4048C98.3002 29.7824 97.4048 28.887 97.4048 27.7824V16.6082C97.4048 15.5036 98.3002 14.6082 99.4048 14.6082H101.455C101.774 14.6082 102.032 14.8668 102.032 15.1859V15.1859Z" fill="#6767C2"/>
<path d="M108.06 22.1681C108.06 20.609 108.349 19.2402 108.926 18.0618C109.522 16.8834 110.324 15.9769 111.335 15.3424C112.345 14.7079 113.473 14.3906 114.718 14.3906C115.782 14.3906 116.711 14.6082 117.505 15.0433C117.775 15.188 118.024 15.3478 118.252 15.5226C118.631 15.8127 119.372 15.5574 119.372 15.0806V15.0806C119.372 14.8197 119.584 14.6082 119.845 14.6082H122C123.105 14.6082 124 15.5036 124 16.6082V27.7824C124 28.887 123.105 29.7824 122 29.7824H119.858C119.59 29.7824 119.372 29.5652 119.372 29.2972V29.2972C119.372 28.8119 118.636 28.5551 118.251 28.8507C118.015 29.0323 117.757 29.1978 117.478 29.3473C116.684 29.7824 115.755 30 114.691 30C113.464 30 112.345 29.6827 111.335 29.0482C110.324 28.3955 109.522 27.48 108.926 26.3016C108.349 25.1051 108.06 23.7272 108.06 22.1681ZM119.372 22.1953C119.372 21.035 119.048 20.1195 118.398 19.4487C117.767 18.7779 116.991 18.4425 116.071 18.4425C115.151 18.4425 114.366 18.7779 113.716 19.4487C113.085 20.1014 112.769 21.0078 112.769 22.1681C112.769 23.3284 113.085 24.253 113.716 24.9419C114.366 25.6127 115.151 25.9481 116.071 25.9481C116.991 25.9481 117.767 25.6127 118.398 24.9419C119.048 24.2711 119.372 23.3556 119.372 22.1953Z" fill="#6767C2"/>
<path d="M12 40.3743C12 38.5205 12.4103 36.8717 13.2309 35.4278C14.0516 33.9661 15.1835 32.8419 16.6424 32.0397C18.1195 31.2198 19.7881 30.8098 21.6482 30.8098C23.9277 30.8098 25.8789 31.398 27.5019 32.5745C28.4231 33.2422 29.171 34.0478 29.7456 34.9911C30.4302 36.1151 29.4635 37.3873 28.1474 37.3873H26.8637C26.0993 37.3873 25.4356 36.9184 24.9198 36.3543C24.6456 36.0544 24.3301 35.8016 23.9733 35.5959C23.2803 35.1859 22.487 34.9809 21.5935 34.9809C20.1528 34.9809 18.9857 35.4711 18.0921 36.4515C17.1986 37.4319 16.7518 38.742 16.7518 40.382C16.7518 42.0219 17.1986 43.3321 18.0921 44.3125C18.9857 45.2928 20.1528 45.783 21.5935 45.783C22.487 45.783 23.2803 45.5781 23.9733 45.1681C24.3301 44.9624 24.6456 44.7096 24.9198 44.4096C25.4356 43.8455 26.0993 43.3766 26.8637 43.3766H28.1474C29.4635 43.3766 30.4302 44.6488 29.7456 45.7728C29.171 46.7162 28.4231 47.5217 27.5019 48.1895C25.8789 49.3481 23.9277 49.9274 21.6482 49.9274C19.7881 49.9274 18.1195 49.5264 16.6424 48.7242C15.1835 47.9043 14.0516 46.7647 13.2309 45.3209C12.4103 43.877 12 42.2282 12 40.3743Z" fill="#6767C2"/>
<path d="M40.5773 50C39.082 50 37.7325 49.6881 36.5289 49.0642C35.3436 48.4403 34.4044 47.549 33.7114 46.3904C33.0367 45.2317 32.6993 43.877 32.6993 42.3262C32.6993 40.7932 33.0458 39.4474 33.7388 38.2888C34.4318 37.1123 35.38 36.2121 36.5836 35.5882C37.7872 34.9643 39.1367 34.6524 40.632 34.6524C42.1274 34.6524 43.4769 34.9643 44.6804 35.5882C45.884 36.2121 46.8323 37.1123 47.5253 38.2888C48.2182 39.4474 48.5647 40.7932 48.5647 42.3262C48.5647 43.8592 48.2091 45.2139 47.4979 46.3904C46.8049 47.549 45.8475 48.4403 44.6257 49.0642C43.4221 49.6881 42.0727 50 40.5773 50ZM40.5773 46.0428C41.4709 46.0428 42.2277 45.7219 42.8477 45.0802C43.486 44.4385 43.8051 43.5205 43.8051 42.3262C43.8051 41.1319 43.4951 40.2139 42.8751 39.5722C42.2733 38.9305 41.5256 38.6096 40.632 38.6096C39.7202 38.6096 38.9634 38.9305 38.3616 39.5722C37.7598 40.1961 37.459 41.1141 37.459 42.3262C37.459 43.5205 37.7507 44.4385 38.3343 45.0802C38.9361 45.7219 39.6838 46.0428 40.5773 46.0428Z" fill="#6767C2"/>
<path d="M50.1162 42.2995C50.1162 40.7665 50.408 39.4207 50.9915 38.262C51.5933 37.1034 52.4048 36.2121 53.426 35.5882C54.4473 34.9643 55.587 34.6524 56.8453 34.6524C57.8483 34.6524 58.7601 34.8574 59.5807 35.2674V35.2674C60.291 35.6145 61.5502 35.1118 61.5502 34.3212V31.6329C61.5502 30.7311 62.2813 30 63.1831 30L64 30C65.1046 30 66 30.8954 66 32V47.7861C66 48.8907 65.1046 49.7861 64 49.7861H62.0213C61.7611 49.7861 61.5502 49.5752 61.5502 49.315V49.315C61.5502 48.8397 60.8115 48.5851 60.4331 48.8727C60.1985 49.051 59.9417 49.2129 59.6628 49.3583C58.8604 49.7861 57.9212 50 56.8453 50C55.587 50 54.4473 49.6881 53.426 49.0642C52.4048 48.4225 51.5933 47.5223 50.9915 46.3636C50.408 45.1872 50.1162 43.8324 50.1162 42.2995ZM61.5502 42.3262C61.5502 41.1854 61.222 40.2852 60.5655 39.6257C59.9272 38.9661 59.143 38.6364 58.213 38.6364C57.283 38.6364 56.4897 38.9661 55.8332 39.6257C55.1949 40.2674 54.8758 41.1586 54.8758 42.2995C54.8758 43.4403 55.1949 44.3494 55.8332 45.0267C56.4897 45.6863 57.283 46.016 58.213 46.016C59.143 46.016 59.9272 45.6863 60.5655 45.0267C61.222 44.3672 61.5502 43.467 61.5502 42.3262Z" fill="#6767C2"/>
<path d="M84 42.0856V42.0856C84 42.8499 83.3421 43.4225 82.5777 43.4225H75.4955C74.3291 43.4225 73.308 44.5399 74.086 45.4089C74.1333 45.4618 74.1829 45.5127 74.2346 45.5615C74.7817 46.0428 75.4473 46.2834 76.2314 46.2834C76.8965 46.2834 77.4461 46.1271 77.8803 45.8145C78.5075 45.3629 79.1587 44.8396 79.9317 44.8396H81.0569C82.3661 44.8396 83.3119 46.1084 82.5205 47.1514C82.4342 47.265 82.3438 47.3768 82.2493 47.4866C81.5928 48.2709 80.7631 48.8859 79.7601 49.3315C78.7571 49.7772 77.6356 50 76.3956 50C74.9002 50 73.569 49.6881 72.4019 49.0642C71.2348 48.4403 70.323 47.549 69.6665 46.3904C69.01 45.2317 68.6817 43.877 68.6817 42.3262C68.6817 40.7754 69.0008 39.4207 69.6391 38.262C70.2956 37.1034 71.2074 36.2121 72.3745 35.5882C73.5416 34.9643 74.882 34.6524 76.3956 34.6524C77.8727 34.6524 79.1857 34.9554 80.3345 35.5615C81.4834 36.1676 82.377 37.0321 83.0153 38.1551C83.6717 39.2781 84 40.5882 84 42.0856ZM77.213 40.8824C78.3176 40.8824 79.2875 39.8381 78.478 39.0866C78.4502 39.0608 78.4217 39.0355 78.3924 39.0107C77.8453 38.5472 77.1615 38.3155 76.3409 38.3155C75.5567 38.3155 74.8911 38.5383 74.344 38.984V38.984C73.4653 39.7244 74.397 40.8824 75.5461 40.8824H77.213Z" fill="#6767C2"/>
</svg>
