<?xml version="1.0" standalone="no"?>
<!DOCTYPE svg PUBLIC "-//W3C//DTD SVG 20010904//EN"
 "http://www.w3.org/TR/2001/REC-SVG-20010904/DTD/svg10.dtd">
<svg version="1.0" xmlns="http://www.w3.org/2000/svg"
 width="1600.000000pt" height="1600.000000pt" viewBox="0 0 1600.000000 1600.000000"
 preserveAspectRatio="xMidYMid meet">
<metadata>
Created by potrace 1.14, written by Peter Selinger 2001-2017
</metadata>
<g transform="translate(0.000000,1600.000000) scale(0.100000,-0.100000)"
fill="#000000" stroke="none">
<path d="M5935 15985 c-68 -15 -131 -39 -192 -73 -52 -29 -193 -159 -193 -178
0 -8 -4 -14 -10 -14 -5 0 -10 -6 -10 -14 0 -8 -7 -17 -16 -20 -8 -3 -13 -10
-10 -15 4 -5 -1 -17 -10 -25 -8 -9 -13 -16 -10 -16 3 0 -3 -20 -13 -43 -39
-90 -43 -145 -45 -650 -3 -427 -5 -500 -20 -552 -21 -74 -66 -175 -77 -175 -5
0 -9 -7 -9 -16 0 -9 -37 -53 -83 -98 -63 -62 -102 -91 -160 -119 -143 -69
-148 -69 -772 -71 -550 -2 -561 -3 -642 -25 -46 -13 -83 -27 -83 -32 0 -5 -3
-8 -7 -7 -5 2 -34 -12 -65 -29 -67 -38 -168 -138 -206 -202 -14 -25 -30 -47
-34 -49 -4 -2 -8 -12 -8 -23 0 -10 -4 -19 -8 -19 -5 0 -9 -6 -9 -12 -1 -7 -11
-49 -22 -92 l-21 -80 3 -1885 c1 -1037 5 -1895 9 -1906 4 -11 13 -40 19 -65 7
-25 22 -61 34 -80 12 -19 23 -39 25 -45 6 -22 61 -93 107 -136 52 -50 142
-111 183 -124 14 -4 30 -11 36 -16 13 -11 131 -38 138 -32 2 2 14 -1 26 -7 17
-9 21 -9 15 0 -6 9 -3 9 13 1 14 -7 23 -8 27 -1 3 6 14 7 23 2 20 -9 182 -8
206 1 10 4 15 3 12 -1 -2 -4 48 -6 112 -4 64 2 125 3 135 3 218 -5 357 -4 357
2 0 5 5 5 11 1 6 -3 57 -8 113 -9 55 -2 113 -8 127 -13 15 -6 30 -8 33 -5 3 4
6 1 6 -6 0 -7 4 -10 10 -6 5 3 17 2 27 -4 10 -5 43 -21 75 -36 88 -44 214
-158 241 -217 6 -16 15 -28 19 -28 5 0 8 -6 8 -14 0 -8 7 -21 15 -30 9 -8 15
-18 15 -21 -1 -9 12 -60 19 -70 3 -5 6 -14 7 -20 1 -5 5 -23 9 -40 4 -16 9
-141 10 -276 2 -230 1 -253 -21 -340 -13 -51 -29 -96 -35 -99 -6 -4 -10 -10
-10 -14 6 -37 -169 -245 -206 -246 -7 0 -13 -4 -13 -10 0 -5 -5 -10 -11 -10
-6 0 -23 -8 -37 -19 -29 -20 -126 -55 -182 -67 -19 -4 -276 -8 -570 -9 -295
-1 -559 -5 -588 -9 -135 -16 -300 -102 -380 -198 -14 -17 -31 -35 -37 -42 -23
-24 -75 -114 -75 -129 0 -10 -4 -17 -8 -17 -4 0 -17 -35 -27 -77 -20 -77 -20
-138 -20 -3228 0 -3254 -1 -3187 36 -3257 5 -10 9 -27 9 -38 0 -11 5 -20 10
-20 6 0 10 -7 10 -16 0 -36 117 -181 202 -249 66 -54 187 -110 284 -134 73
-18 124 -19 726 -20 693 -2 718 0 857 51 59 21 221 123 221 138 0 5 9 12 21
15 11 4 18 9 16 12 -3 3 10 20 30 39 19 19 32 34 28 34 -3 0 3 9 14 21 46 50
109 210 117 299 3 30 7 1376 8 2990 1 1614 6 2943 10 2953 5 10 6 21 2 24 -3
3 -1 12 4 19 6 6 10 16 9 20 -3 12 7 38 49 124 83 169 284 313 469 337 26 3
1202 6 2613 7 1899 2 2575 5 2605 14 22 6 49 13 60 15 95 18 255 116 339 207
80 87 160 239 169 321 2 19 6 39 9 44 9 16 6 1085 -3 1090 -4 3 -6 12 -2 20 6
18 -40 162 -69 213 -39 68 -112 158 -165 202 -44 37 -215 138 -233 138 -3 0
-7 1 -10 2 -3 1 -12 3 -20 5 -8 2 -37 9 -65 16 -40 10 -569 13 -2625 14 -2009
1 -2586 4 -2626 14 -29 7 -58 13 -65 15 -8 1 -40 14 -73 29 -32 15 -62 27 -67
27 -5 0 -9 4 -9 8 0 5 -12 15 -27 22 -36 17 -173 158 -173 176 0 8 -4 14 -8
14 -10 0 -58 100 -55 112 2 4 -2 8 -9 8 -6 0 -9 2 -6 5 2 3 -3 35 -12 73 -15
61 -17 207 -15 1772 2 1320 5 1716 15 1755 32 131 127 277 228 351 29 21 58
44 65 49 16 15 131 61 187 77 35 9 685 12 2950 13 2244 2 2919 5 2965 14 33 7
65 13 70 14 6 2 24 8 40 14 39 15 58 20 69 21 5 0 12 4 15 9 3 4 23 17 44 28
20 11 37 23 37 27 0 5 7 8 15 8 19 0 127 101 170 160 42 57 79 129 108 212 21
61 22 78 24 524 2 294 -1 474 -8 495 -5 19 -12 41 -14 50 -2 8 -10 31 -17 50
-8 18 -15 38 -15 42 -2 27 -88 151 -143 206 -62 61 -157 131 -180 131 -5 0
-10 3 -10 8 0 8 -133 56 -190 69 -19 4 -1428 8 -3130 9 -2535 2 -3106 0 -3155
-11z"/>
</g>
</svg>
